<svg xmlns="http://www.w3.org/2000/svg" viewBox="0 0 400 460">
  <defs>
    <linearGradient id="bg" x1="0" y1="0" x2="1" y2="1">
      <stop offset="0" stop-color="#0d1510"/><stop offset="1" stop-color="#081009"/>
    </linearGradient>
    <radialGradient id="glow" cx="0.7" cy="0.25" r="0.9">
      <stop offset="0" stop-color="#3ad6f7" stop-opacity="0.35"/>
      <stop offset="1" stop-color="#3ad6f7" stop-opacity="0"/>
    </radialGradient>
    <linearGradient id="kit" x1="0" y1="0" x2="0" y2="1">
      <stop offset="0" stop-color="#3ad6f7"/><stop offset="1" stop-color="#0e6e8f"/>
    </linearGradient>
  </defs>
  <rect width="400" height="460" fill="url(#bg)"/>
  <rect width="400" height="460" fill="url(#glow)"/>
  <!-- pitch lines -->
  <g stroke="#ffffff" stroke-opacity="0.05" fill="none" stroke-width="2">
    <circle cx="200" cy="470" r="150"/><circle cx="200" cy="470" r="240"/>
    <line x1="0" y1="330" x2="400" y2="330"/>
  </g>
  <!-- head -->
  <circle cx="200" cy="150" r="46" fill="#0f1a12" stroke="#3ad6f7" stroke-width="3" stroke-opacity="0.85"/>
  <!-- shirt -->
  <path d="M116 240 L162 208 Q200 196 238 208 L284 240 L306 300 Q312 318 294 324 L272 331 L270 300 L268 402 Q268 418 250 418 L150 418 Q132 418 132 402 L130 300 L128 331 L106 324 Q88 318 94 300 Z"
        fill="url(#kit)"/>
  <path d="M162 208 Q200 232 238 208 Q222 218 200 218 Q178 218 162 208 Z" fill="#081009" fill-opacity="0.55"/>
  <text x="200" y="330" text-anchor="middle" font-family="Arial Black, Arial" font-size="86"
        font-weight="900" fill="#0a120b" fill-opacity="0.85">1</text>
  <!-- name plate -->
  <rect x="118" y="368" width="164" height="30" rx="15" fill="#0a120b" fill-opacity="0.65"/>
  <text x="200" y="389" text-anchor="middle" font-family="Arial" font-size="15" font-weight="700"
        fill="#3ad6f7" letter-spacing="4">EERO VIRTANEN</text>
  <text x="200" y="443" text-anchor="middle" font-family="Arial" font-size="12" font-weight="700"
        fill="#94a49a" letter-spacing="3">GOALKEEPING</text>
</svg>